<svg width="30" height="30" viewBox="0 0 30 30" fill="inherit" xmlns="http://www.w3.org/2000/svg">
<path fill-rule="evenodd" clip-rule="evenodd" d="M10.3125 11.25C10.3125 10.7322 10.7322 10.3125 11.25 10.3125H18.75C19.2677 10.3125 19.6875 10.7322 19.6875 11.25C19.6875 11.7678 19.2677 12.1875 18.75 12.1875H15.9375V18.75C15.9375 19.2677 15.5177 19.6875 15 19.6875C14.4822 19.6875 14.0625 19.2677 14.0625 18.75V12.1875H11.25C10.7322 12.1875 10.3125 11.7678 10.3125 11.25Z" fill="inherit"/>
<path fill-rule="evenodd" clip-rule="evenodd" d="M7.32482 4.07884C6.95806 3.154 6.0554 2.5 5 2.5C3.61929 2.5 2.5 3.61929 2.5 5C2.5 6.05541 3.154 6.95806 4.07884 7.32482C4.06811 7.38157 4.0625 7.44012 4.0625 7.5V22.5C4.0625 22.5599 4.06811 22.6184 4.07884 22.6751C3.154 23.0419 2.5 23.9446 2.5 25C2.5 26.3807 3.61929 27.5 5 27.5C6.05541 27.5 6.95806 26.846 7.32482 25.9211C7.38157 25.9319 7.44012 25.9375 7.5 25.9375H22.5C22.5599 25.9375 22.6184 25.9319 22.6751 25.9211C23.0419 26.846 23.9446 27.5 25 27.5C26.3807 27.5 27.5 26.3807 27.5 25C27.5 23.9446 26.846 23.0419 25.9211 22.6751C25.9319 22.6184 25.9375 22.5599 25.9375 22.5V7.5C25.9375 7.44012 25.9319 7.38157 25.9211 7.32482C26.846 6.95806 27.5 6.05541 27.5 5C27.5 3.61929 26.3807 2.5 25 2.5C23.9446 2.5 23.0419 3.154 22.6751 4.07884C22.6184 4.06811 22.5599 4.0625 22.5 4.0625H7.5C7.44012 4.0625 7.38157 4.06811 7.32482 4.07884ZM5.92116 7.32482C5.93189 7.38157 5.9375 7.44012 5.9375 7.5V22.5C5.9375 22.5599 5.93189 22.6184 5.92116 22.6751C6.56094 22.9289 7.07111 23.439 7.32482 24.0789C7.38157 24.0681 7.44012 24.0625 7.5 24.0625H22.5C22.5599 24.0625 22.6184 24.0681 22.6751 24.0789C22.9289 23.439 23.439 22.9289 24.0789 22.6751C24.0681 22.6184 24.0625 22.5599 24.0625 22.5V7.5C24.0625 7.44012 24.0681 7.38157 24.0789 7.32482C23.439 7.07111 22.9289 6.56094 22.6751 5.92116C22.6184 5.93189 22.5599 5.9375 22.5 5.9375H7.5C7.44012 5.9375 7.38157 5.93189 7.32482 5.92116C7.07111 6.56094 6.56094 7.07111 5.92116 7.32482Z" fill="inherit"/>
</svg>
