<svg width="30" height="30" viewBox="0 0 30 30" fill="none" xmlns="http://www.w3.org/2000/svg">
<path fill-rule="evenodd" clip-rule="evenodd" d="M9.91772 2.5C9.94505 2.5 9.97249 2.5 10 2.5H20.0823C21.1904 2.49994 22.1451 2.49989 22.9098 2.60269C23.7291 2.71285 24.5146 2.96128 25.1516 3.59835C25.7888 4.23544 26.0371 5.02088 26.1474 5.84027C26.2501 6.60485 26.2501 7.55963 26.25 8.66775V9.9375C26.25 10.6279 25.6904 11.1875 25 11.1875C24.3096 11.1875 23.75 10.6279 23.75 9.9375V8.75002C23.75 7.53617 23.7474 6.75153 23.6696 6.17339C23.5968 5.63122 23.479 5.46128 23.3839 5.36613C23.2888 5.27097 23.1188 5.15329 22.5766 5.08039C21.9985 5.00267 21.2139 5 20 5H16.25V26.25C16.25 26.9404 15.6904 27.5 15 27.5C14.3096 27.5 13.75 26.9404 13.75 26.25V5H10C8.78617 5 8.00153 5.00267 7.42339 5.08039C6.88122 5.15329 6.71128 5.27097 6.61613 5.36613C6.52097 5.46128 6.40329 5.63122 6.33039 6.17339C6.25267 6.75153 6.25 7.53617 6.25 8.75002V9.9375C6.25 10.6279 5.69037 11.1875 5 11.1875C4.30965 11.1875 3.75 10.6279 3.75 9.9375V8.75002C3.75 8.72249 3.75 8.69505 3.75 8.66773C3.74994 7.55962 3.74989 6.60484 3.85269 5.84027C3.96285 5.02088 4.21128 4.23544 4.84835 3.59835C5.48544 2.96128 6.27088 2.71285 7.09027 2.60269C7.85484 2.49989 8.80962 2.49994 9.91772 2.5Z" fill="#DFDFDF"/>
<path d="M8.75 26.25H21.25" stroke="#DFDFDF" stroke-width="2.33" stroke-linecap="round" stroke-linejoin="round"/>
</svg>
