<svg width="30" height="30" viewBox="0 0 30 30" fill="none" xmlns="http://www.w3.org/2000/svg">
<path d="M11.25 18.75V22.5C11.25 23.6785 11.25 24.2678 10.8839 24.6339C10.5178 25 9.92851 25 8.75 25H7.5C6.32149 25 5.73224 25 5.36611 24.6339C5 24.2678 5 23.6785 5 22.5V21.25C5 20.0715 5 19.4823 5.36611 19.1161C5.73224 18.75 6.32149 18.75 7.5 18.75H11.25Z" stroke="#DFDFDF" stroke-width="2.66667"/>
<path d="M18.75 11.25V7.5C18.75 6.32149 18.75 5.73224 19.1161 5.36611C19.4823 5 20.0715 5 21.25 5H22.5C23.6785 5 24.2678 5 24.6339 5.36611C25 5.73224 25 6.32149 25 7.5V8.75C25 9.92851 25 10.5178 24.6339 10.8839C24.2678 11.25 23.6785 11.25 22.5 11.25H18.75Z" stroke="#DFDFDF" stroke-width="2.66667"/>
<path d="M18.75 11.25L11.25 18.75" stroke="#DFDFDF" stroke-width="2.66667"/>
</svg>
