<svg width="30" height="30" viewBox="0 0 30 30" fill="none" xmlns="http://www.w3.org/2000/svg">
<path opacity="0.5" fill-rule="evenodd" clip-rule="evenodd" d="M17.8485 2.6903C17.3856 2.5 16.7987 2.5 15.625 2.5C14.4512 2.5 13.8644 2.5 13.4015 2.6903C12.7842 2.94404 12.2939 3.43073 12.0382 4.04329C11.9215 4.32293 11.8758 4.64813 11.8579 5.12249C11.8317 5.8196 11.4714 6.46486 10.8627 6.81366C10.254 7.16245 9.5108 7.14943 8.88936 6.82345C8.46647 6.60162 8.15986 6.47828 7.85749 6.43878C7.19511 6.35223 6.52522 6.53036 5.9952 6.934C5.59767 7.23673 5.30423 7.74113 4.71737 8.74991C4.13051 9.75871 3.83708 10.2631 3.77168 10.7561C3.68447 11.4135 3.86397 12.0783 4.27068 12.6044C4.45632 12.8445 4.71721 13.0463 5.12212 13.2988C5.71738 13.67 6.1004 14.3024 6.10036 15C6.10032 15.6976 5.71732 16.3299 5.12212 16.701C4.71715 16.9536 4.45621 17.1555 4.27056 17.3956C3.86385 17.9216 3.68436 18.5864 3.77156 19.2438C3.83696 19.7368 4.1304 20.2413 4.71725 21.25C5.30411 22.2588 5.59755 22.7633 5.99507 23.0659C6.5251 23.4695 7.19498 23.6476 7.85736 23.5611C8.15972 23.5216 8.46631 23.3983 8.88916 23.1765C9.51065 22.8505 10.2539 22.8375 10.8626 23.1863C11.4714 23.5351 11.8317 24.1804 11.8579 24.8776C11.8758 25.3519 11.9215 25.6771 12.0382 25.9568C12.2939 26.5693 12.7842 27.056 13.4015 27.3098C13.8644 27.5 14.4512 27.5 15.625 27.5C16.7987 27.5 17.3856 27.5 17.8485 27.3098C18.4657 27.056 18.9561 26.5693 19.2117 25.9568C19.3285 25.6771 19.3742 25.3519 19.3921 24.8775C19.4184 24.1804 19.7785 23.5351 20.3872 23.1863C20.996 22.8374 21.7392 22.8505 22.3607 23.1765C22.7836 23.3983 23.0901 23.5215 23.3925 23.561C24.0549 23.6476 24.7247 23.4695 25.2547 23.0659C25.6524 22.7631 25.9457 22.2588 26.5326 21.2499C27.1195 20.2411 27.4129 19.7368 27.4784 19.2438C27.5655 18.5864 27.386 17.9215 26.9794 17.3955C26.7936 17.1554 26.5327 16.9535 26.1277 16.701C25.5326 16.3299 25.1496 15.6975 25.1496 14.9999C25.1496 14.3023 25.5326 13.6701 26.1277 13.299C26.5329 13.0464 26.7937 12.8446 26.9795 12.6044C27.3861 12.0784 27.5656 11.4136 27.4785 10.7562C27.413 10.2632 27.1196 9.75879 26.5327 8.75C25.9459 7.74121 25.6525 7.23681 25.2549 6.93409C24.7249 6.53045 24.055 6.35231 23.3926 6.43886C23.0902 6.47836 22.7836 6.6017 22.3609 6.8235C21.7394 7.14949 20.9961 7.16253 20.3874 6.8137C19.7786 6.46489 19.4184 5.81958 19.392 5.12243C19.3741 4.6481 19.3285 4.32291 19.2117 4.04329C18.9561 3.43073 18.4657 2.94404 17.8485 2.6903Z" fill="#DFDFDF"/>
<path d="M19.4034 15C19.4034 17.0711 17.7118 18.75 15.6249 18.75C13.538 18.75 11.8463 17.0711 11.8463 15C11.8463 12.9289 13.538 11.25 15.6249 11.25C17.7118 11.25 19.4034 12.9289 19.4034 15Z" fill="#DFDFDF"/>
</svg>
