<svg width="30" height="30" viewBox="0 0 30 30" fill="none" xmlns="http://www.w3.org/2000/svg">
<path d="M5 21.25C6.38071 21.25 7.5 20.1307 7.5 18.75C7.5 17.3693 6.38071 16.25 5 16.25C3.61929 16.25 2.5 17.3693 2.5 18.75C2.5 20.1307 3.61929 21.25 5 21.25Z" stroke="currentColor" stroke-width="2.66667"/>
<path d="M23.75 10C22.3693 10 21.25 11.1193 21.25 12.5C21.25 13.8807 22.3693 15 23.75 15C25.1307 15 26.25 13.8807 26.25 12.5C26.25 11.1193 25.1307 10 23.75 10Z" stroke="currentColor" stroke-width="2.66667"/>
<path d="M22.5 13.75L20.625 15.625C19.3536 16.8964 18.718 17.532 17.9535 17.673C17.6536 17.7283 17.3464 17.7283 17.0465 17.673C16.282 17.532 15.6464 16.8964 14.375 15.625C13.1036 14.3536 12.468 13.718 11.7035 13.577C11.4037 13.5218 11.0963 13.5218 10.7965 13.577C10.032 13.718 9.39631 14.3536 8.125 15.625L6.25 17.5" stroke="currentColor" stroke-width="2.66667"/>
</svg>
